<svg xmlns="http://www.w3.org/2000/svg" fill="currentColor">
    <symbol id="phone" viewBox="0 0 20 20">
        <path d="M0.545846 8.48429C0.192503 7.52985 -0.0633659 6.55512 0.0138009 5.51946C0.0625379 4.88181 0.302161 4.33759 0.769223 3.89083C1.2769 3.41158 1.75615 2.90797 2.2557 2.4206C2.90552 1.7789 3.72187 1.78296 4.37169 2.4206C4.77377 2.81456 5.17179 3.21664 5.56981 3.61872C5.95564 4.00455 6.34554 4.39038 6.73137 4.78028C7.40963 5.46666 7.41369 6.26676 6.73543 6.94907C6.24807 7.43644 5.76476 7.92787 5.26927 8.40712C5.1393 8.53302 5.12712 8.63862 5.19616 8.79702C5.52107 9.57681 5.9922 10.2713 6.52018 10.9211C7.58427 12.2289 8.78645 13.3905 10.2201 14.288C10.5288 14.4789 10.8659 14.6211 11.1867 14.7957C11.3533 14.8851 11.4629 14.8566 11.5969 14.7186C12.0803 14.219 12.5757 13.7276 13.0712 13.2361C13.7211 12.5944 14.5333 12.5904 15.1832 13.2361C15.9792 14.024 16.7712 14.816 17.5591 15.6121C18.2211 16.2781 18.217 17.0945 17.551 17.7646C17.1002 18.2195 16.625 18.65 16.2026 19.1252C15.5852 19.8156 14.8055 20.0431 13.9201 19.9943C12.6285 19.9253 11.4385 19.4948 10.2892 18.9384C7.7386 17.6996 5.56169 15.9816 3.73811 13.8129C2.38973 12.2045 1.2769 10.4581 0.545846 8.48429ZM20 9.93827C20 4.45943 15.5406 0 10.0617 0V1.89262C14.4968 1.89262 18.1074 5.50321 18.1074 9.93827H20ZM14.5577 9.93827H16.4503C16.4503 6.41703 13.583 3.54967 10.0617 3.54967V5.44229C11.2639 5.44229 12.393 5.90935 13.2418 6.75819C14.0906 7.60702 14.5577 8.73609 14.5577 9.93827Z" fill="currentColor"/>
    </symbol>

    <symbol id="arrow" viewBox="0 0 20 20">
        <path d="M1.17962 9.86914H18.0762" stroke="currentColor" stroke-width="2" stroke-linecap="round" stroke-linejoin="round" fill="none"/>
        <path d="M9.6279 1.41986L18.0762 9.86813L9.6279 18.3164" stroke="currentColor" stroke-width="2" stroke-linecap="round" stroke-linejoin="round" fill="none"/>
    </symbol>
</svg>
