<svg width="68" height="68" viewBox="0 0 68 68" fill="none" xmlns="http://www.w3.org/2000/svg">
<rect x="34" y="0.707107" width="47" height="47" transform="rotate(45 34 0.707107)" stroke="white"/>
<path d="M29.1136 40.9974C30.1056 40.6967 30.6661 39.6488 30.3654 38.6567C30.0648 37.6647 29.0168 37.1042 28.0248 37.4048C27.0327 37.7055 26.4722 38.7534 26.7729 39.7455C27.0735 40.7375 28.1215 41.298 29.1136 40.9974Z" fill="white"/>
<path d="M39.3301 41.0801C40.3667 41.0801 41.207 40.2397 41.207 39.2031C41.207 38.1665 40.3667 37.3262 39.3301 37.3262C38.2935 37.3262 37.4531 38.1665 37.4531 39.2031C37.4531 40.2397 38.2935 41.0801 39.3301 41.0801Z" fill="white"/>
<path d="M43.7363 32.9789C43.1844 32.01 42.5563 31.0865 41.8578 30.2172C41.5313 29.8133 41.1202 29.4859 40.6534 29.2582C40.1866 29.0305 39.6755 28.9079 39.1562 28.8992C38.5312 28.8891 37.9152 28.8832 37.4523 28.8832H37.4477C37.3498 28.3905 37.0948 27.9429 36.7209 27.6073C36.3471 27.2718 35.8746 27.0665 35.3742 27.0223C34.7004 26.9629 32.0578 26.9199 30.7922 26.9199C29.5266 26.9199 26.8859 26.9629 26.2102 27.0223C25.6668 27.0702 25.1577 27.3079 24.7721 27.6936C24.3864 28.0792 24.1488 28.5883 24.1008 29.1316C24.043 29.8055 24 31.7121 24 32.9773C24 34.2426 24.043 36.1488 24.1027 36.823C24.1434 37.2826 24.32 37.7197 24.61 38.0786C24.9001 38.4374 25.2904 38.7017 25.7313 38.8379C25.8217 38.1317 26.1726 37.4848 26.715 37.0237C27.2574 36.5626 27.9525 36.3206 28.664 36.345C29.3755 36.3695 30.0522 36.6586 30.5618 37.1558C31.0713 37.653 31.3769 38.3225 31.4187 39.0332C32.2664 39.027 33.3668 39.0094 34.2168 38.9848C34.8945 39.0059 35.7371 39.0215 36.477 39.0297C36.5208 38.3174 36.8294 37.6473 37.3423 37.1511C37.8551 36.6548 38.5351 36.3684 39.2484 36.3481C39.9617 36.3278 40.6568 36.575 41.1971 37.0413C41.7374 37.5075 42.0837 38.1589 42.168 38.8676C42.6324 38.7475 43.0482 38.4866 43.3582 38.1206C43.6683 37.7546 43.8574 37.3016 43.8996 36.8238C43.9512 36.2426 43.9902 35.109 44 33.9961C44.0032 33.6397 43.9123 33.2888 43.7363 32.9789ZM41.8344 33.5773H37.5852C37.5852 33.3672 37.5879 33.1652 37.5879 32.9773C37.5879 32.1055 37.5672 30.9289 37.5352 30.0613C37.9801 30.0613 38.5582 30.0676 39.1387 30.077C39.4855 30.0828 39.8268 30.1648 40.1385 30.3172C40.4501 30.4695 40.7245 30.6885 40.9422 30.9586C41.417 31.5486 41.8569 32.1658 42.2598 32.807C42.3077 32.8831 42.3344 32.9706 42.337 33.0604C42.3396 33.1503 42.3181 33.2392 42.2746 33.3178C42.2312 33.3965 42.1674 33.4621 42.09 33.5078C42.0125 33.5534 41.9243 33.5774 41.8344 33.5773Z" fill="white"/>
</svg>
