<svg width="68" height="68" viewBox="0 0 68 68" fill="none" xmlns="http://www.w3.org/2000/svg">
<rect x="34" y="0.707107" width="47" height="47" transform="rotate(45 34 0.707107)" stroke="white"/>
<mask id="mask0_284_75" style="mask-type:luminance" maskUnits="userSpaceOnUse" x="23" y="23" width="22" height="22">
<path d="M23 23H45V45H23V23Z" fill="white"/>
</mask>
<g mask="url(#mask0_284_75)">
<path d="M33.9992 27.8125C34.268 27.8125 34.5128 27.9569 34.6248 28.181L35.5131 29.9644L37.533 30.2256C37.7908 30.2593 38.006 30.4236 38.0885 30.6498C38.171 30.876 38.1077 31.1256 37.9235 31.2947L36.4288 32.6697L36.8008 34.6373C36.8217 34.7574 36.806 34.8811 36.7557 34.9921C36.7055 35.1032 36.623 35.1966 36.5189 35.2602C36.41 35.3291 36.2849 35.3684 36.1562 35.3742C36.0274 35.38 35.8993 35.3521 35.7847 35.2932L33.9992 34.3644L32.2138 35.2925C32.099 35.3515 31.9708 35.3795 31.8419 35.3737C31.713 35.3679 31.5879 35.3286 31.4788 35.2595C31.3748 35.1959 31.2923 35.1025 31.242 34.9915C31.1917 34.8804 31.1761 34.7567 31.197 34.6366L31.5696 32.669L30.075 31.294C29.9861 31.2153 29.9229 31.1118 29.8935 30.9969C29.8641 30.8819 29.8698 30.7608 29.91 30.6491C29.9925 30.4223 30.2077 30.2586 30.4655 30.2249L32.4853 29.9637L33.3736 28.1803C33.4857 27.9562 33.7311 27.8125 33.9992 27.8125Z" fill="white"/>
<path fill-rule="evenodd" clip-rule="evenodd" d="M25.0625 31.9375C25.0625 27.0013 29.0638 23 34 23C38.9363 23 42.9375 27.0013 42.9375 31.9375C42.9383 33.4385 42.5608 34.9155 41.8398 36.232C41.1188 37.5485 40.0777 38.6621 38.8125 39.4698V44.3125C38.8124 44.4296 38.7824 44.5448 38.7254 44.6471C38.6683 44.7494 38.586 44.8354 38.4864 44.897C38.3867 44.9586 38.273 44.9937 38.1559 44.9989C38.0389 45.0042 37.9225 44.9795 37.8177 44.9271L34 43.0186L30.1823 44.9271C30.0775 44.9795 29.9611 45.0042 29.8441 44.9989C29.727 44.9937 29.6133 44.9586 29.5136 44.897C29.414 44.8354 29.3317 44.7494 29.2746 44.6471C29.2176 44.5448 29.1876 44.4296 29.1875 44.3125V39.4698C27.9223 38.6621 26.8812 37.5485 26.1602 36.232C25.4392 34.9155 25.0617 33.4385 25.0625 31.9375ZM40.1875 31.9375C40.1875 33.5785 39.5356 35.1523 38.3752 36.3127C37.2148 37.4731 35.641 38.125 34 38.125C32.359 38.125 30.7852 37.4731 29.6248 36.3127C28.4644 35.1523 27.8125 33.5785 27.8125 31.9375C27.8125 30.2965 28.4644 28.7227 29.6248 27.5623C30.7852 26.4019 32.359 25.75 34 25.75C35.641 25.75 37.2148 26.4019 38.3752 27.5623C39.5356 28.7227 40.1875 30.2965 40.1875 31.9375Z" fill="white"/>
</g>
</svg>
