<svg width="68" height="68" viewBox="0 0 68 68" fill="none" xmlns="http://www.w3.org/2000/svg">
<rect x="34" y="0.707107" width="47" height="47" transform="rotate(45 34 0.707107)" stroke="white"/>
<path d="M36.8417 35.0687H41.1757C41.238 35.0687 41.2967 35.054 41.348 35.0247C41.3627 35.0137 41.3773 35.0063 41.392 34.9953C41.414 34.977 41.4323 34.9587 41.4507 34.9403C41.4617 34.9293 41.4727 34.9183 41.48 34.9073C41.9493 34.3647 45 30.7713 45 28.828C45 26.716 43.284 25 41.1757 25C39.0673 25 37.3477 26.716 37.3477 28.828C37.3477 30.4193 39.3863 33.1107 40.391 34.3353H36.8417C35.705 34.3353 34.7773 35.2593 34.7773 36.3997C34.7773 37.54 35.705 38.4603 36.8417 38.4603H42.4187C43.438 38.4603 44.2667 39.2927 44.2667 40.312C44.2667 41.3313 43.438 42.16 42.4187 42.16H29.71C31.1107 40.4697 34.8433 35.7213 34.8433 33.0923C34.8433 29.8253 32.1887 27.1707 28.9217 27.1707C25.6547 27.1707 23 29.8253 23 33.0923C23 36.1797 28.1297 42.171 28.6173 42.732C28.6283 42.743 28.6357 42.7577 28.6467 42.7687C28.665 42.787 28.6833 42.8053 28.7053 42.82C28.72 42.831 28.7347 42.842 28.7493 42.8493C28.753 42.8493 28.753 42.853 28.7567 42.853C28.7603 42.8567 28.764 42.8567 28.7677 42.8603C28.786 42.8677 28.808 42.875 28.8263 42.8823C28.8593 42.8897 28.8887 42.8933 28.9217 42.8933H42.4187C43.8413 42.8933 45 41.7347 45 40.312C45 38.8893 43.8413 37.727 42.4187 37.727H36.8417C36.1083 37.727 35.5107 37.133 35.5107 36.3997C35.5107 36.0467 35.6509 35.7081 35.9005 35.4585C36.1501 35.2089 36.4887 35.0687 36.8417 35.0687ZM39.2323 28.828C39.2323 27.7573 40.105 26.8847 41.1757 26.8847C42.2463 26.8847 43.1153 27.7573 43.1153 28.828C43.1153 29.8987 42.2427 30.7677 41.1757 30.7677C40.1087 30.7677 39.2323 29.895 39.2323 28.828ZM28.9217 30.0637C30.5937 30.0637 31.9503 31.4203 31.9503 33.0923C31.9503 34.7643 30.5937 36.121 28.9217 36.121C27.2497 36.121 25.893 34.7607 25.893 33.0923C25.893 31.424 27.2533 30.0637 28.9217 30.0637Z" fill="white"/>
</svg>
