<svg width="68" height="68" viewBox="0 0 68 68" fill="none" xmlns="http://www.w3.org/2000/svg">
<rect x="34" y="0.707107" width="47" height="47" transform="rotate(45 34 0.707107)" stroke="white"/>
<path d="M43.4031 30.0478L42.3231 37.7695C42.2962 38.1775 42.1811 38.5748 41.9858 38.934C41.7905 39.2933 41.5196 39.6059 41.1918 39.8503C41.1505 39.8789 41.1023 39.8959 41.0522 39.8994C41.0022 39.903 40.952 39.8931 40.9071 39.8706C40.8622 39.8481 40.8242 39.814 40.797 39.7718C40.7698 39.7296 40.7545 39.6808 40.7526 39.6307V31.899C40.7992 31.3949 40.7342 30.8867 40.5621 30.4106C40.39 29.9344 40.1151 29.5021 39.757 29.1442C39.3989 28.7864 38.9663 28.5118 38.49 28.3401C38.0138 28.1683 37.5055 28.1037 37.0014 28.1506H28.5306C28.2606 28.1506 28.2543 27.9077 28.2732 27.7997C28.3492 27.0676 28.7083 26.3942 29.274 25.9232C29.5934 25.7092 29.9524 25.5612 30.3298 25.4881C30.7073 25.415 31.0956 25.4182 31.4718 25.4975L40.9767 26.8295C41.3614 26.8575 41.7366 26.9622 42.0802 27.1375C42.4239 27.3127 42.7289 27.555 42.9774 27.8501C43.1919 28.1692 43.3401 28.5282 43.4132 28.9057C43.4863 29.2833 43.4829 29.6716 43.4031 30.0478ZM39.3999 31.899V39.7C39.4463 40.0258 39.4162 40.358 39.3121 40.6702C39.208 40.9825 39.0327 41.2662 38.8001 41.499C38.5674 41.7318 38.2838 41.9074 37.9716 42.0117C37.6594 42.116 37.3273 42.1463 37.0014 42.1002H27.4002C27.0741 42.1468 26.7417 42.1169 26.4292 42.0128C26.1167 41.9086 25.8327 41.7332 25.5998 41.5003C25.3669 41.2674 25.1914 40.9834 25.0873 40.6709C24.9832 40.3585 24.9532 40.026 24.9999 39.7V31.899C24.9536 31.5731 24.9837 31.2409 25.088 30.9286C25.1923 30.6164 25.3678 30.3327 25.6007 30.1C25.8335 29.8673 26.1174 29.692 26.4297 29.588C26.742 29.4839 27.0743 29.454 27.4002 29.5006H37.0014C37.3271 29.4545 37.6591 29.4848 37.9711 29.5891C38.2831 29.6933 38.5666 29.8686 38.7992 30.1012C39.0318 30.3338 39.2072 30.6173 39.3114 30.9293C39.4157 31.2413 39.446 31.5733 39.3999 31.899ZM35.1249 35.8004C35.1249 35.6214 35.0538 35.4497 34.9272 35.3231C34.8006 35.1965 34.6289 35.1254 34.4499 35.1254H32.8749V33.5505C32.8749 33.3715 32.8038 33.1998 32.6772 33.0732C32.5506 32.9466 32.3789 32.8755 32.1999 32.8755C32.0209 32.8755 31.8492 32.9466 31.7226 33.0732C31.596 33.1998 31.5249 33.3715 31.5249 33.5505V35.1254H29.9499C29.7709 35.1254 29.5992 35.1965 29.4726 35.3231C29.346 35.4497 29.2749 35.6214 29.2749 35.8004C29.2749 35.9794 29.346 36.1511 29.4726 36.2777C29.5992 36.4043 29.7709 36.4754 29.9499 36.4754H31.5249V38.0503C31.5249 38.2293 31.596 38.401 31.7226 38.5276C31.8492 38.6542 32.0209 38.7253 32.1999 38.7253C32.3789 38.7253 32.5506 38.6542 32.6772 38.5276C32.8038 38.401 32.8749 38.2293 32.8749 38.0503V36.4754H34.4499C34.6289 36.4754 34.8006 36.4043 34.9272 36.2777C35.0538 36.1511 35.1249 35.9794 35.1249 35.8004Z" fill="white"/>
</svg>
