<svg width="68" height="68" viewBox="0 0 68 68" fill="none" xmlns="http://www.w3.org/2000/svg">
<rect x="34" y="0.707107" width="47" height="47" transform="rotate(45 34 0.707107)" stroke="white"/>
<path d="M37.0694 26.2988C35.5009 26.2988 33.9675 26.7639 32.6633 27.6354C31.3591 28.5068 30.3426 29.7453 29.7424 31.1945C29.1421 32.6436 28.9851 34.2381 29.2911 35.7765C29.5971 37.3148 30.3524 38.7279 31.4615 39.837C32.5707 40.9461 33.9838 41.7014 35.5222 42.0074C37.0606 42.3134 38.6552 42.1564 40.1044 41.5561C41.5535 40.9559 42.7922 39.9394 43.6636 38.6353C44.535 37.3311 45.0002 35.7978 45.0002 34.2293C44.9975 32.1269 44.161 30.1113 42.6743 28.6246C41.1876 27.1379 39.172 26.3015 37.0694 26.2988ZM39.6584 36.8182C39.5145 36.962 39.3195 37.0427 39.1161 37.0427C38.9127 37.0427 38.7176 36.962 38.5737 36.8182L36.5271 34.7717C36.3831 34.6279 36.3021 34.4328 36.3019 34.2293V30.1362C36.3019 29.9326 36.3828 29.7374 36.5267 29.5935C36.6707 29.4496 36.8659 29.3687 37.0694 29.3687C37.273 29.3687 37.4682 29.4496 37.6121 29.5935C37.7561 29.7374 37.8369 29.9326 37.8369 30.1362V33.9121L39.6584 35.7336C39.8022 35.8775 39.8829 36.0725 39.8829 36.2759C39.8829 36.4793 39.8022 36.6743 39.6584 36.8182Z" fill="white"/>
<path d="M28.8059 28.8592H25.7359C25.5323 28.8592 25.3371 28.7783 25.1932 28.6344C25.0493 28.4904 24.9684 28.2952 24.9684 28.0917C24.9684 27.8881 25.0493 27.6929 25.1932 27.549C25.3371 27.4051 25.5323 27.3242 25.7359 27.3242H28.8059C29.0094 27.3242 29.2046 27.4051 29.3486 27.549C29.4925 27.6929 29.5734 27.8881 29.5734 28.0917C29.5734 28.2952 29.4925 28.4904 29.3486 28.6344C29.2046 28.7783 29.0094 28.8592 28.8059 28.8592ZM26.7592 31.929H23.6893C23.4857 31.929 23.2905 31.8482 23.1466 31.7042C23.0026 31.5603 22.9218 31.3651 22.9218 31.1616C22.9218 30.958 23.0026 30.7628 23.1466 30.6189C23.2905 30.4749 23.4857 30.3941 23.6893 30.3941H26.7592C26.9628 30.3941 27.158 30.4749 27.3019 30.6189C27.4459 30.7628 27.5267 30.958 27.5267 31.1616C27.5267 31.3651 27.4459 31.5603 27.3019 31.7042C27.158 31.8482 26.9628 31.929 26.7592 31.929ZM26.7592 38.0688H23.6893C23.4857 38.0688 23.2905 37.9879 23.1466 37.844C23.0026 37.7 22.9218 37.5048 22.9218 37.3013C22.9218 37.0977 23.0026 36.9025 23.1466 36.7586C23.2905 36.6147 23.4857 36.5338 23.6893 36.5338H26.7592C26.9628 36.5338 27.158 36.6147 27.3019 36.7586C27.4459 36.9025 27.5267 37.0977 27.5267 37.3013C27.5267 37.5048 27.4459 37.7 27.3019 37.844C27.158 37.9879 26.9628 38.0688 26.7592 38.0688ZM26.7592 34.9989H22.6659C22.4624 34.9989 22.2672 34.918 22.1232 34.7741C21.9793 34.6302 21.8984 34.435 21.8984 34.2314C21.8984 34.0279 21.9793 33.8327 22.1232 33.6887C22.2672 33.5448 22.4624 33.464 22.6659 33.464H26.7592C26.9628 33.464 27.158 33.5448 27.3019 33.6887C27.4459 33.8327 27.5267 34.0279 27.5267 34.2314C27.5267 34.435 27.4459 34.6302 27.3019 34.7741C27.158 34.918 26.9628 34.9989 26.7592 34.9989ZM28.8059 41.1386H25.7359C25.5323 41.1386 25.3371 41.0578 25.1932 40.9138C25.0493 40.7699 24.9684 40.5747 24.9684 40.3712C24.9684 40.1676 25.0493 39.9724 25.1932 39.8285C25.3371 39.6845 25.5323 39.6037 25.7359 39.6037H28.8059C29.0094 39.6037 29.2046 39.6845 29.3486 39.8285C29.4925 39.9724 29.5734 40.1676 29.5734 40.3712C29.5734 40.5747 29.4925 40.7699 29.3486 40.9138C29.2046 41.0578 29.0094 41.1386 28.8059 41.1386Z" fill="white"/>
</svg>
