<svg width="72" height="19" viewBox="0 0 72 19" fill="none" xmlns="http://www.w3.org/2000/svg">
<path d="M15.4146 11.3667C15.4146 13.623 13.9569 14.8928 11.7245 14.8928C9.49214 14.8928 8.03442 13.6237 8.03442 11.3667V0.695312H5.00195V11.3898C5.00195 15.1269 7.70484 17.6658 11.7476 17.6658C15.7673 17.6658 18.4471 15.1246 18.4471 11.3898V0.695312H15.4146V11.3667Z" fill="#FF344B"/>
<path d="M35.5252 7.78418C35.5204 7.66782 35.4707 7.55783 35.3867 7.47721C35.3027 7.39658 35.1907 7.35156 35.0743 7.35156C34.9578 7.35156 34.8459 7.39658 34.7619 7.47721C34.6778 7.55783 34.6282 7.66782 34.6234 7.78418V7.91817C34.6209 7.97894 34.6307 8.0396 34.6522 8.09649C34.6738 8.15338 34.7066 8.20534 34.7487 8.24923C34.7908 8.29312 34.8414 8.32804 34.8973 8.3519C34.9533 8.37576 35.0135 8.38805 35.0743 8.38805C35.1351 8.38805 35.1953 8.37576 35.2513 8.3519C35.3072 8.32804 35.3578 8.29312 35.3999 8.24923C35.442 8.20534 35.4748 8.15338 35.4964 8.09649C35.5179 8.0396 35.5277 7.97894 35.5252 7.91817V7.78418Z" fill="#1A1A1A"/>
<path d="M45.4217 7.78418C45.4168 7.66782 45.3672 7.55783 45.2832 7.47721C45.1992 7.39658 45.0872 7.35156 44.9708 7.35156C44.8543 7.35156 44.7424 7.39658 44.6584 7.47721C44.5743 7.55783 44.5247 7.66782 44.5199 7.78418V7.91817C44.5174 7.97894 44.5272 8.0396 44.5487 8.09649C44.5703 8.15338 44.6031 8.20534 44.6452 8.24923C44.6873 8.29312 44.7378 8.32804 44.7938 8.3519C44.8498 8.37576 44.91 8.38805 44.9708 8.38805C45.0316 8.38805 45.0918 8.37576 45.1478 8.3519C45.2037 8.32804 45.2543 8.29312 45.2964 8.24923C45.3385 8.20534 45.3713 8.15338 45.3928 8.09649C45.4144 8.0396 45.4242 7.97894 45.4217 7.91817V7.78418Z" fill="#1A1A1A"/>
<path d="M31.8792 15.9024H32.6839V7.33398H31.8538V10.3688C31.8538 10.5235 31.8659 10.678 31.8899 10.8308H31.8653C31.6735 10.4645 31.3842 10.1584 31.0294 9.94614C30.6747 9.73389 30.2681 9.62378 29.8547 9.62797C28.2337 9.62797 27.0879 10.8955 27.0879 12.8337C27.0879 14.735 28.1236 16.0518 29.7577 16.0518C30.818 16.0518 31.5496 15.4665 31.8907 14.7719H31.9154C31.8893 14.9168 31.8772 15.0637 31.8792 15.2109V15.9024ZM29.8924 15.3048C28.7466 15.3048 27.9419 14.3422 27.9419 12.8306C27.9419 11.2705 28.8436 10.3803 29.9286 10.3803C31.2331 10.3803 31.8668 11.587 31.8668 12.8183C31.8661 14.574 30.9151 15.3056 29.8909 15.3056L29.8924 15.3048Z" fill="#1A1A1A"/>
<path d="M35.4887 9.76953H34.6602V15.9007H35.4887V9.76953Z" fill="#1A1A1A"/>
<path d="M45.3833 9.77148H44.5547V15.9026H45.3833V9.77148Z" fill="#1A1A1A"/>
<path d="M47.5889 8.07812V9.82153H46.7734V10.5146H47.5781V13.6718C47.5781 15.7194 49.0166 15.9512 49.7235 15.9512C49.8418 15.9522 49.96 15.944 50.077 15.9265V15.1826C49.9848 15.2019 49.8907 15.2102 49.7967 15.2073C49.3215 15.2073 48.4106 15.0125 48.4106 13.5863V10.5161H49.9584V9.82307H48.4106V8.07812H47.5889Z" fill="#1A1A1A"/>
<path d="M54.5114 12.1242C53.3409 12.1242 50.7812 12.2458 50.7812 14.2572C50.7812 15.4393 51.817 16.0491 52.8535 16.0491C53.2956 16.0467 53.7274 15.915 54.0956 15.6702C54.4638 15.4254 54.7523 15.0783 54.9257 14.6715H54.9503C54.9248 14.841 54.9127 15.0122 54.9141 15.1836V15.9028H55.7065V11.9756C55.7065 10.4401 54.8895 9.62305 53.4148 9.62305C52.5978 9.62305 51.733 9.90335 51.2448 10.3161L51.6229 10.9498C52.1283 10.5768 52.7382 10.3721 53.3663 10.3646C54.2319 10.3646 54.8779 10.7666 54.8779 11.9494V12.1203L54.5114 12.1242ZM54.8772 13.0629C54.8772 14.1356 54.1841 15.3546 52.9998 15.3546C52.0857 15.3546 51.6222 14.757 51.6222 14.1841C51.6222 12.8188 53.5727 12.7826 54.5229 12.7826H54.8764L54.8772 13.0629Z" fill="#1A1A1A"/>
<path d="M57.6191 7.33398V14.4524C57.6191 15.5258 58.2052 15.8385 58.6972 15.9247H62.7331V15.16H58.8867C58.6556 15.083 58.4477 14.8613 58.4477 14.2699V7.33398H57.6191Z" fill="#1A1A1A"/>
<path d="M22.6777 5.13281V17.6647L41.1875 17.6493C41.3005 17.6497 41.4133 17.6407 41.5248 17.6223C41.7411 17.59 41.946 17.5042 42.1208 17.3728C42.3018 17.2294 42.4358 17.0353 42.5058 16.8153C42.5677 16.6231 42.6002 16.4227 42.6021 16.2208C42.6021 16.1977 42.6021 16.1746 42.6021 16.1507V9.76314H41.7728V10.6826C41.3877 9.93718 40.5561 9.62376 39.7444 9.62376C38.0988 9.62376 37.087 10.879 37.087 12.7201C37.087 14.5613 38.172 15.8643 39.8153 15.8643C40.7663 15.8643 41.4 15.4253 41.7658 14.7308H41.7704V15.9667C41.7704 15.9952 41.7704 16.0229 41.7704 16.0499C41.7704 16.1107 41.7635 16.1669 41.7573 16.22C41.7265 16.4657 41.6495 16.6243 41.5494 16.7252C41.5146 16.7605 41.475 16.7905 41.4316 16.8145H23.5271V5.98218H66.2982V16.8153H43.9181V17.6624H67.1476V5.13281H22.6777ZM39.9393 15.1212C38.7326 15.1212 37.9279 14.1825 37.9279 12.7078C37.9279 11.2447 38.6348 10.3676 39.8291 10.3676C40.9141 10.3676 41.7674 10.9282 41.7674 12.7201C41.7681 14.5244 40.9149 15.1212 39.9393 15.1212Z" fill="#1A1A1A"/>
</svg>
