<svg width="161" height="44" viewBox="0 0 161 44" fill="none" xmlns="http://www.w3.org/2000/svg">
<path d="M118.915 39.604C120.191 39.675 121.057 39.7078 121.509 39.7078C121.616 39.7078 121.701 39.675 121.764 39.6122C121.827 39.5494 121.857 39.4647 121.857 39.3581V38.7297H120.249C119.759 38.7297 119.402 38.6204 119.183 38.3991C118.961 38.1778 118.852 37.8226 118.852 37.3362V37.1259C118.852 36.6368 118.961 36.2843 119.183 36.063C119.405 35.8417 119.761 35.7324 120.249 35.7324H122.704V36.7078H120.529C120.249 36.7078 120.109 36.8472 120.109 37.1259V37.2652C120.109 37.5439 120.249 37.6832 120.529 37.6832H121.789C122.247 37.6832 122.581 37.7898 122.797 38.0029C123.011 38.216 123.118 38.5521 123.118 39.0084V39.3581C123.118 39.8144 123.011 40.1477 122.797 40.3636C122.584 40.5767 122.247 40.6832 121.789 40.6832C121.551 40.6832 121.298 40.6778 121.033 40.6696L120.389 40.6423C119.912 40.6177 119.422 40.5876 118.912 40.5439V39.604H118.915Z" fill="#004389"/>
<path d="M128.469 39.2897C128.469 39.7788 128.359 40.1313 128.137 40.3526C127.915 40.5739 127.559 40.6832 127.071 40.6832H125.323C124.833 40.6832 124.477 40.5739 124.257 40.3526C124.035 40.1313 123.926 39.7761 123.926 39.2897V37.0575C123.926 36.5684 124.035 36.216 124.257 35.9947C124.479 35.7734 124.836 35.6641 125.323 35.6641H127.071C127.562 35.6641 127.915 35.7734 128.137 35.9947C128.359 36.216 128.469 36.5712 128.469 37.0575V39.2897ZM127.211 37.0575C127.211 36.7788 127.071 36.6395 126.792 36.6395H125.603C125.323 36.6395 125.183 36.7788 125.183 37.0575V39.2897C125.183 39.5684 125.323 39.7078 125.603 39.7078H126.792C127.071 39.7078 127.211 39.5684 127.211 39.2897V37.0575Z" fill="#004389"/>
<path d="M130.744 39.6395H133.298V40.6149H129.486V35.7324H130.747V39.6395H130.744Z" fill="#004389"/>
<path d="M137.248 35.7324H138.509V39.2898C138.509 39.7789 138.399 40.1313 138.177 40.3526C137.955 40.574 137.599 40.6832 137.111 40.6832H135.503C135.012 40.6832 134.656 40.574 134.437 40.3526C134.215 40.1313 134.105 39.7761 134.105 39.2898V35.7324H135.366V39.2898C135.366 39.5685 135.506 39.7078 135.785 39.7078H136.835C137.114 39.7078 137.254 39.5685 137.254 39.2898V35.7324H137.248Z" fill="#004389"/>
<path d="M141.833 40.6149H140.572V36.7078H139.104V35.7324H143.301V36.7078H141.833V40.6149Z" fill="#004389"/>
<path d="M150.928 39.2897C150.928 39.7788 150.818 40.1313 150.596 40.3526C150.374 40.5739 150.018 40.6832 149.53 40.6832H147.782C147.292 40.6832 146.936 40.5739 146.716 40.3526C146.494 40.1313 146.385 39.7761 146.385 39.2897V37.0575C146.385 36.5684 146.494 36.216 146.716 35.9947C146.938 35.7734 147.294 35.6641 147.782 35.6641H149.53C150.021 35.6641 150.374 35.7734 150.596 35.9947C150.818 36.216 150.928 36.5712 150.928 37.0575V39.2897ZM149.667 37.0575C149.667 36.7788 149.528 36.6395 149.248 36.6395H148.059C147.779 36.6395 147.64 36.7788 147.64 37.0575V39.2897C147.64 39.5684 147.779 39.7078 148.059 39.7078H149.248C149.528 39.7078 149.667 39.5684 149.667 39.2897V37.0575Z" fill="#004389"/>
<path d="M156 40.6149H154.671L152.991 37.686V40.6149H151.73V35.7324H153.059L154.739 38.6614V35.7324H156V40.6149Z" fill="#004389"/>
<path d="M156.797 39.604C158.074 39.675 158.94 39.7078 159.392 39.7078C159.499 39.7078 159.584 39.675 159.647 39.6122C159.71 39.5494 159.74 39.4647 159.74 39.3581V38.7297H158.132C157.641 38.7297 157.285 38.6204 157.066 38.3991C156.844 38.1778 156.734 37.8226 156.734 37.3362V37.1259C156.734 36.6368 156.844 36.2843 157.066 36.063C157.288 35.8417 157.644 35.7324 158.132 35.7324H160.587V36.7078H158.411C158.132 36.7078 157.992 36.8472 157.992 37.1259V37.2652C157.992 37.5439 158.132 37.6832 158.411 37.6832H159.672C160.129 37.6832 160.464 37.7898 160.68 38.0029C160.894 38.216 161.001 38.5521 161.001 39.0084V39.3581C161.001 39.8144 160.894 40.1477 160.68 40.3636C160.466 40.5767 160.129 40.6832 159.672 40.6832C159.433 40.6832 159.181 40.6778 158.915 40.6696L158.272 40.6423C157.795 40.6177 157.304 40.5876 156.795 40.5439V39.604H156.797Z" fill="#004389"/>
<path d="M145.362 35.7324H144.115V40.6149H145.362V35.7324Z" fill="#004389"/>
<path d="M139.24 15.3594H136.072L130.789 32.2255H134.305L139.24 15.3594Z" fill="#004389"/>
<path d="M140.187 15.3594H139.913L138.467 20.4113L139.785 25.0124H137.149L136.346 27.8102H140.587L141.705 32.2255H145.429L140.187 15.3594Z" fill="#004389"/>
<path d="M92.6859 15.3594H91.4062V18.4605H92.6557C94.5957 18.4605 96.1685 20.8484 96.1685 23.7938C96.1685 26.7392 94.5957 29.1271 92.6557 29.1271H91.4062V32.2282H92.6859C96.6371 32.2282 99.8403 28.4523 99.8403 23.7965C99.8403 19.1353 96.6371 15.3594 92.6859 15.3594Z" fill="#004389"/>
<path d="M76.9573 29.3518C75.1461 29.1879 73.724 27.6715 73.724 25.8218V21.7644C73.724 19.9147 75.1434 18.3983 76.9573 18.2343V15.1797C73.1267 15.3573 70.0742 18.6688 70.0742 22.7316V24.8545C70.0742 28.9174 73.1267 32.2289 76.9573 32.4065V29.3518Z" fill="#004389"/>
<path d="M77.6035 15.1797V18.2343C79.4147 18.3983 80.8368 19.9147 80.8368 21.7644V25.8218C80.8368 27.6715 79.4175 29.1879 77.6035 29.3518V32.4065C81.4342 32.2289 84.4866 28.9174 84.4866 24.8545V22.7316C84.4866 18.6688 81.4342 15.3573 77.6035 15.1797Z" fill="#004389"/>
<path d="M54.6304 15.3535H49.0625V32.2196H52.6657L52.2986 19.4655H52.3588L56.2059 30.6759L57.9349 25.4054L54.6304 15.3535Z" fill="#004389"/>
<path d="M61.939 15.3535V15.3726L61.9225 15.3644L56.5547 31.6923L56.7383 32.2196H58.27V32.2278H59.8154L64.1913 19.4737H64.2544L63.8762 32.2196H67.4192V15.3535H61.939Z" fill="#004389"/>
<path d="M87.123 15.3594V17.8293H87.1285V29.7555H87.123V32.2255H90.7592V15.3594H87.123Z" fill="#004389"/>
<path d="M114.926 18.2551V15.2578H111.342V19.9163H111.34V26.5365C111.34 27.9819 110.246 29.1731 108.838 29.3316V32.3234C112.23 32.154 114.929 29.3671 114.929 25.9436V18.2523H114.926V18.2551Z" fill="#004389"/>
<path d="M105.692 26.5365V15.2578H102.094L102.099 25.9463C102.099 29.3698 104.798 32.1567 108.19 32.3261V29.3343C106.785 29.1731 105.692 27.9846 105.692 26.5365Z" fill="#004389"/>
<path d="M122.609 15.3594H118.938V32.2255H122.606V29.108H122.604L122.609 15.3594Z" fill="#004389"/>
<path d="M152.334 15.3594H149.857H148.654V32.2255H152.351L152.334 15.3594Z" fill="#004389"/>
<path d="M159.407 28.108L158.38 25.2665C159.635 24.2419 160.435 22.6872 160.435 20.9441C160.435 17.8594 157.928 15.3594 154.834 15.3594H153.908H152.984V18.4277H154.365C155.76 18.4277 156.889 19.5534 156.889 20.9441C156.889 22.3348 155.76 23.4605 154.365 23.4605H152.984V26.5288H154.834C154.927 26.5288 155.018 26.5206 155.111 26.5151L156.9 32.2255H160.884L159.407 28.108Z" fill="#004389"/>
<path d="M123.254 29.1113V32.2261H129.085V29.8272V29.7561V29.1113H123.254Z" fill="#004389"/>
<path d="M77.4434 35.4891L32.4537 42.1803V33.2814L41.8386 36.4508L41.6879 9.72131L77.1557 12.1366L77.142 4.86885L40.5809 0L4.87464 10.2787V12.9781L0 14.0137L0.0137003 31.6612L31.4536 44L77.4434 37.1585V35.4891ZM75.4925 6.31421L75.5007 10.377L41.6796 8.07377L41.644 1.80874L75.4925 6.31421ZM40.1726 34.153L32.4537 31.5437V9.09563L40.0356 9.61202L40.1726 34.153ZM30.8015 41.9699L1.66598 30.5355L1.65502 15.3443L4.87738 14.6612V23.9672L30.8015 32.7268V41.9699ZM30.8015 30.9863L6.52965 22.7842L6.52692 14.3087L30.8015 9.15574V30.9863ZM31.4235 7.37432L31.3084 7.36612L6.52692 12.6257V11.5191L39.9917 1.93169L40.0246 7.95902L31.4235 7.37432Z" fill="#004389"/>
</svg>
